<svg xmlns="http://www.w3.org/2000/svg" width="258" height="258" fill="none">
    <g filter="url(#filter0_d_18_18)" style="filter:url(#a)">
        <path fill="#783578"
            d="M63.5835 171.887c-.829-2.421-1.6583-4.843-1.6762-7.463C61.8533 156.5 67.9109 151.835 74.5 153c5.794 1.025 9.3133 7.468 7.8328 14.413-.3796 1.781-1.2832 3.342-1.8328 5.087-.602 1.911-1.1225 4.045-1.5 6-1.7489 9.055 2.4228 13.701 11.4301 13.711 7.3404.009 14.6809.008 22.0209.006h.039c6.98-.001 13.96-.002 20.94.005 8.325.009 9.584 1.939 6.279 9.535-4.868 11.189-.153 22.861 10.926 27.042 11.339 4.279 24.063-1.351 27.755-12.445 1.568-4.714 1.127-9.506-.399-14.217-2.527-7.8-.985-9.867 7.365-9.909 2.423-.013 4.846-.005 7.268.003 2.077.007 4.155.014 6.232.008 3.097-.009 4.582 1.494 4.577 4.598-.007 4.44.006 8.88.02 13.32.029 9.56.059 19.121-.123 28.678-.135 7.067-5.48 11.678-12.938 11.72-12.601.07-25.202.065-37.803.059h-.008c-3.729-.002-7.459-.004-11.188-.003-9.831 0-19.663-.021-29.494-.041l-.042-.001c-24.6553-.052-49.3107-.104-73.9622.184-11.0615.129-17.5179-4.104-16.8472-17.082.4078-7.893.3128-15.81.2179-23.729-.0451-3.756-.0902-7.511-.0816-11.265.0139-6.049.4145-6.425 6.6442-6.442 3.5835-.009 7.1672-.005 10.7508-.001h.0045c5.915.006 11.8299.013 17.7444-.04 6.0312-.054 8.2755-2.231 9.0438-8.283.4502-3.546-.13-6.951-1.2128-10.31-.1847-.573-.38-1.143-.5753-1.714Z"
            style="filter:url(#filter2)" />
        <path fill="#9C469C"
            d="M166.204 196.77c.131.458.262.916.372 1.375.299.908.616 1.782.924 2.634l.001.001c1.344 3.712 2.53 6.988 1.455 10.705-1.696 5.865-6.794 9.099-12.597 7.818-5.197-1.148-8.948-6.68-7.898-12.205.67-3.528 1.803-6.982 2.926-10.406l.049-.15c.804-2.451.892-4.921.687-7.407-.499-6.035-3.241-8.599-9.333-8.622-9.099-.035-18.198-.031-27.297-.026h-.032c-5.219.002-10.437.004-15.6553-.001-9.761-.009-10.8505-1.498-8.0406-10.895 2.8873-9.656-.1314-18.54-8.0133-23.582-8.1092-5.188-18.8207-4.44-26.0572 1.819-6.7447 5.834-8.4931 14.51-4.6623 23.134 3.3987 7.651 2.2669 9.553-6.0524 9.473-1.4471-.013-2.898.032-4.3497.078h-.0006c-4.0347.126-8.0749.253-12.0522-.895-5.7306-1.654-9.228-5.526-9.3117-11.505-.1152-8.235-.1028-16.472-.0904-24.709.0087-5.758.0173-11.517-.0176-17.275-.023-3.799 1.9405-4.889 5.3279-4.867 8.2458.051 16.4921.033 24.7382.016H51.2267c1.2494-.003 2.4987-.005 3.7481-.008 8.5647-.016 11.421-3.405 10.5458-12.154-.2669-2.668-1.0593-5.177-1.8515-7.685-.4068-1.287-.8134-2.5749-1.1488-3.8835-1.7013-6.6376.6512-12.1498 5.9255-14.2357 6.8469-2.7078 13.4323 1.3647 14.0707 8.6962.2205 2.533-.2342 4.9277-1.0455 7.3472l-.076.2267-.0001.0003c-1.0313 3.0738-2.0816 6.2048-2.5121 9.3938C77.7929 117.048 81.4672 120.989 89.5 121c5.675.008 11.825.004 17.5 0 8.986-.007 17.514-.042 26.5 0 7.881.037 9.406 2.581 6.255 9.671-3.894 8.759-2.311 17.582 4.172 23.256 7.156 6.263 18.005 7.221 26.058 2.3 7.802-4.768 11.8-13.914 8.433-22.974-3.203-8.618-2.38-12.24 7.582-12.253 3.5-.004 9.047-.004 12.5 0 3.252.004 4.95 1.527 4.938 4.971-.017 4.673 0 9.347.016 14.021.032 9.156.065 18.311-.151 27.461-.191 8.135-5.362 12.375-14.798 12.949-3.819.232-7.688.365-11.488.03-10.09-.888-11.944 6.083-11.449 13.344.068 1.008.352 2.001.636 2.994Z"
            style="filter:url(#filter2)" />
        <path fill="#CF67CA"
            d="M139.376 43.216c3.259-.0026 6.3.4493 8.823 2.7161 1.943 2.6487 2.484 5.1916 3.008 7.6608.064.299.127.5968.193.8936 5.104 23.1254 22.759 39.0229 46.389 41.729 5.164.5914 6.851 2.4523 6.615 7.2295-.232 4.69-2.931 6.23-7.305 6.14-6.831-.141-13.667-.101-20.501-.06h-.003l-.485.003c-7.206.043-10.526 3.471-10.703 10.79-.082 3.397.976 6.507 2.037 9.626.17.498.34.997.505 1.497l.081.245c.911 2.756 1.814 5.485 1.066 8.521-1.547 6.287-6.328 9.459-12.707 8.244-5.394-1.027-9.099-6.795-7.822-12.618.43-1.961 1.07-3.875 1.712-5.79.416-1.245.833-2.49 1.193-3.749 3.144-11.014-1.115-16.769-12.408-16.786-6.19-.009-12.379-.007-18.569-.005-7.137.002-14.275.005-21.4123-.01-8.7751-.019-10.0187-1.764-7.3954-10.194 2.9403-9.448.5254-17.9131-6.6211-23.2096-7.4492-5.5208-17.4693-5.7821-25.3016-.6597-7.7462 5.066-10.7581 13.9986-7.6241 22.7014.2627.7297.5731 1.4422.8836 2.1549h.0001c.2884.662.5768 1.324.8271 2 1.8019 4.866.4629 7.043-4.636 7.164-5.3273.127-10.6683.183-15.9893-.049-8.4928-.371-12.0199-4.149-12.0381-12.5872-.0295-13.6601-.0377-27.3204.0035-40.9804.0243-8.0629 4.5716-12.5828 12.7349-12.5895 17.6379-.0145 35.2758-.0143 52.9137-.0141h.014c17.507.0002 35.015.0004 52.522-.0138Z"
            style="filter:url(#filter2)" />
        <path fill="#89B80A"
            d="M213.632 10.7397c3.118 1.1669 8.231 3.2603 6.649 6.6141-4.052 8.5919-8.72 16.3602-13.34 24.0499v.0002c-1.305 2.1725-2.607 4.3389-3.889 6.5157-1.982 3.3631-4.324 3.2619-6.492-.0197-.511-.7739-1.048-1.533-1.585-2.292-1.005-1.4209-2.01-2.8413-2.845-4.3561-2.786-5.0559-7.321-5.2188-12.128-4.5342-2.728.3887-3.3 2.063-1.744 4.2785 1.181 1.6812 2.35 3.3726 3.519 5.0641v.0002c3.377 4.8869 6.754 9.7751 10.434 14.423 4.396 5.5536 12.053 5.0249 16.111-.8127 4.086-5.8795 8.104-11.8069 12.122-17.7344l.002-.0044c2.331-3.4386 4.662-6.8773 7.006-10.3067.215-.3144.415-.6628.617-1.0152.741-1.2944 1.514-2.6423 3.187-2.556 2.043.1055 2.641 1.8422 3.197 3.4586.107.3091.212.6137.325.9017 5.635 14.3394 1.424 31.3982-10.286 41.904-11.84 10.6222-28.974 12.6588-43.279 5.1445-13.823-7.2612-21.681-22.3607-19.79-37.868 3.207-26.3092 28.424-39.75791 52.209-30.8551Z"
            style="filter:url(#filter2)" />
    </g>
    <defs>
        <filter id="a" width="1.0399529" height="1.0479494" x="-.0199764" y="-.0177957"
            style="color-interpolation-filters:sRGB">
            <feFlood flood-color="#000" flood-opacity=".498039" result="flood" />
            <feGaussianBlur in="SourceGraphic" result="blur" stdDeviation="1.8" />
            <feOffset dy="3" in="blur" result="offset" />
            <feComposite in="flood" in2="offset" operator="in" result="comp1" />
            <feComposite in="SourceGraphic" in2="comp1" result="comp2" />
        </filter>
    </defs>
</svg>