<svg xmlns="http://www.w3.org/2000/svg" viewBox="0 0 900.154 155.999"><defs><style>.a{fill:#eceff1}.b,.c{fill:#54a8ff;fill-rule:evenodd}.c{fill:#e64086}</style></defs><title>logo</title><path d="M280.506,474.737c0,4.382-2.841,7.451-6.784,7.453-1.643,0-2.739-.326-6.136-1.747a20.063,20.063,0,0,0-8.763-1.855c-11.5.01-18.394,8.558-18.383,22.906.012,14.129,6.918,22.558,18.528,22.549,4.162,0,4.162,0,11.608-3.406a10.145,10.145,0,0,1,3.723-.879c3.724,0,6.793,3.5,6.8,7.662.006,7.119-9.3,12.274-22.115,12.285-22.015.018-36.485-15.305-36.5-38.635-.019-22.453,14.865-38.127,36.223-38.144C271.734,462.916,280.5,467.728,280.506,474.737Z" class="a" transform="translate(-23.86 -421.926)"/><path d="M328.522,489.923c4.714,5.144,7.239,12.262,7.245,20.147.013,16.43-11.477,28.816-26.811,28.828a26.872,26.872,0,0,1-19.723-8.747C284.41,524.9,282,518,281.988,509.676c-.012-15.991,11.7-28.487,26.921-28.5A26.815,26.815,0,0,1,328.522,489.923ZM297.87,509.882c.007,8.1,4.611,14.015,10.745,14.011,6.352,0,11.276-6.143,11.27-13.918-.006-7.668-4.94-13.8-11.292-13.793C302.569,496.187,297.864,502.215,297.87,509.882Z" class="a" transform="translate(-23.86 -421.926)"/><path d="M376.223,468.089c0-3.834.106-4.819,1.09-6.682a7.994,7.994,0,0,1,13.91-.011c.987,1.861,1.1,2.737,1.1,6.68l.049,61.227c0,5.8-2.951,9.2-8.1,9.206-3.943,0-6.135-1.747-7.782-6.347-3.391,4.713-7.661,6.688-13.9,6.693-7.339.006-13.8-3.6-18.409-10.062a34.5,34.5,0,0,1-6.039-19.162c-.007-8.543,3.928-17.419,9.839-22.571a24.8,24.8,0,0,1,15.22-5.927c4.819,0,8.654,1.418,13.037,5.028ZM354.241,509.07c.006,8.1,4.72,14.016,11.183,14.01,6.243,0,10.948-6.032,10.941-13.918-.006-7.777-4.72-13.8-10.963-13.792C359.049,495.375,354.234,501.293,354.241,509.07Z" class="a" transform="translate(-23.86 -421.926)"/><path d="M415.053,515.265c2.415,6.46,6.469,9.523,12.822,9.518,3.833,0,4.819-.332,13.249-4.5a9.16,9.16,0,0,1,3.5-.769,6.882,6.882,0,0,1,6.468,6.567c0,6.571-11.709,12.714-24.086,12.724-17.2.013-29.253-11.586-29.266-28.016-.014-17.086,11.695-29.691,27.577-29.7,15-.012,26.734,12.137,26.747,27.8,0,4.49-2.076,6.353-7,6.357Zm21.13-10.97a17.368,17.368,0,0,0-2.305-5.913,10.018,10.018,0,0,0-8.218-4.155c-5.367,0-8.869,3.074-11.164,10.085Z" class="a" transform="translate(-23.86 -421.926)"/><path d="M473.69,485.755c4.816-3.509,8.211-4.717,13.03-4.721,13.8-.011,24.983,12.686,24.995,28.677.014,16.429-10.71,29.033-24.839,29.045-6.024,0-9.969-1.855-13.368-6.342-1.749,4.163-4.048,6.027-7.552,6.029-4.929,0-8.327-3.5-8.331-8.536l-.05-61.883c0-3.834.106-4.819,1.091-6.682a7.993,7.993,0,0,1,13.909-.011c.987,1.861,1.1,2.737,1.1,6.68Zm-.09,23.986c.006,8.105,4.72,14.016,11.183,14.011,6.243-.006,10.947-6.033,10.941-13.918-.006-7.777-4.72-13.8-10.963-13.792C478.408,496.046,473.594,501.965,473.6,509.741Z" class="a" transform="translate(-23.86 -421.926)"/><path d="M569.22,528.832c0,5.7-3.279,9.531-8.1,9.535-3.833,0-6.464-2.076-8.11-6.346-4.049,5.041-7.332,6.688-13.247,6.692a23.5,23.5,0,0,1-15.886-6.12q-9.537-8.372-9.549-22.993c-.006-8.872,2.617-15.556,8.417-21.256,4.815-4.823,10.509-7.347,16.752-7.352,5.695,0,9.093,1.636,13.7,6.342,1.749-4.273,4.158-6.027,7.991-6.031a8.021,8.021,0,0,1,8,8.209ZM530.432,509.7c.006,8.434,4.392,14.017,11.182,14.011,6.572,0,11.058-5.7,11.052-13.919s-4.5-13.8-11.184-13.791C534.911,496,530.425,501.591,530.432,509.7Z" class="a" transform="translate(-23.86 -421.926)"/><path d="M615.66,491.994c0,3.614-2.951,7.012-6.236,7.014-1.752,0-1.862,0-6.793-2.185a15.582,15.582,0,0,0-6.135-1.638c-2.629,0-4.271,1.1-4.269,2.851,0,2.081.878,2.629,8.438,5.579,7.122,2.842,9.423,4.155,12.273,7a14.537,14.537,0,0,1,3.951,10.074c.008,10.623-8.639,17.969-21.235,17.979-10.952.01-20.6-5.459-20.6-11.593,0-3.723,3.279-7.231,6.674-7.234,1.863,0,1.863,0,8.328,2.841a15.92,15.92,0,0,0,6.463,1.748c2.628,0,4.709-1.647,4.707-3.729,0-1.861-1.207-2.846-6.137-4.705-8-2.95-10.19-4.044-12.93-6.014-3.836-2.734-5.482-6.347-5.486-11.605-.008-9.966,8.857-17.422,20.687-17.431C607.109,480.938,615.656,486.079,615.66,491.994Z" class="a" transform="translate(-23.86 -421.926)"/><path d="M636.652,515.088c2.416,6.459,6.471,9.523,12.823,9.517,3.834,0,4.819-.332,13.25-4.5a9.129,9.129,0,0,1,3.5-.769A6.88,6.88,0,0,1,672.7,525.9c0,6.572-11.71,12.714-24.086,12.724-17.2.014-29.253-11.587-29.266-28.016-.014-17.086,11.695-29.691,27.577-29.7,15-.012,26.734,12.136,26.747,27.8,0,4.49-2.076,6.354-7,6.358Zm21.131-10.971a17.376,17.376,0,0,0-2.3-5.912,10.026,10.026,0,0,0-8.219-4.156c-5.366,0-8.869,3.075-11.164,10.086Z" class="a" transform="translate(-23.86 -421.926)"/><path d="M724.108,473.4a7.532,7.532,0,0,1-7.441,7.783c-1.644,0-1.644,0-5.807-1.529a22.979,22.979,0,0,0-7.448-1.418c-4.93,0-8.432,2.526-8.43,6.031a4.964,4.964,0,0,0,2.305,4.16c1.972,1.423,1.972,1.423,8.983,3.279,16.1,4.368,23.009,11.263,23.019,23.092a24.926,24.926,0,0,1-6.229,16.763c-4.6,5.042-12.261,7.786-21.572,7.794-14.566.01-24.866-5.128-24.872-12.357,0-4.382,3.28-8,7.223-8,2.081,0,2.081,0,10.079,3.059a24.391,24.391,0,0,0,8.215,1.637c5.586,0,9.2-3.075,9.195-7.674a5.8,5.8,0,0,0-2.852-5.256c-2.082-1.422-3.617-1.969-11.614-4.371-8.545-2.513-11.942-4.153-15.01-7.217-3.07-2.955-4.716-7.664-4.721-13.25-.011-13.581,11.263-23.338,26.926-23.351C715.775,462.56,724.1,467.044,724.108,473.4Z" class="a" transform="translate(-23.86 -421.926)"/><path d="M751.17,485.423c5.473-3.29,9.635-4.608,14.782-4.612a20.763,20.763,0,0,1,14.134,5.356c3.945,3.611,5.482,7.991,5.488,15l.022,26.287c0,3.833-.107,4.818-1.091,6.682a7.994,7.994,0,0,1-13.909.01c-.989-1.861-1.1-2.737-1.1-6.68l-.017-21.686c0-6.9-3.4-11.06-8.991-11.055-5.366,0-9.306,4.278-9.3,9.974l.018,22.782c0,3.833-.105,4.819-1.09,6.682a7.995,7.995,0,0,1-13.91.012c-.986-1.863-1.1-2.738-1.1-6.682l-.048-59.692c0-3.834.105-4.82,1.09-6.682a7.994,7.994,0,0,1,13.91-.011c.987,1.861,1.1,2.737,1.1,6.68Z" class="a" transform="translate(-23.86 -421.926)"/><path d="M837.293,489.516c4.714,5.144,7.238,12.261,7.245,20.148.013,16.429-11.478,28.815-26.811,28.826A26.87,26.87,0,0,1,798,529.744c-4.822-5.254-7.238-12.152-7.244-20.475-.014-15.992,11.7-28.487,26.921-28.5A26.814,26.814,0,0,1,837.293,489.516Zm-30.652,19.959c.007,8.105,4.612,14.015,10.745,14.011,6.352-.006,11.276-6.142,11.27-13.92-.007-7.666-4.94-13.8-11.293-13.791C811.34,495.78,806.635,501.808,806.641,509.475Z" class="a" transform="translate(-23.86 -421.926)"/><path d="M907.365,489.351c1.858-6.245,4.046-8.437,8.536-8.441a8.117,8.117,0,0,1,8.113,7.88c0,1.533-.217,2.519-1.2,5.477L911.448,526.7c-2.95,8.437-5.8,11.4-11.053,11.4-4.491,0-7.231-2.4-9.317-8.535l-6.916-20.149-5.572,17.311c-2.732,8.545-5.468,11.394-10.615,11.4-4.491,0-7.888-2.95-9.865-8.535l-12.4-35.368c-1.207-3.285-1.317-3.832-1.318-5.585a7.9,7.9,0,0,1,7.989-7.673c4.49,0,6.683,2.185,8.55,8.317l7.138,23.982,7.866-24.87c1.639-5.259,4.047-7.342,8.427-7.345,3.944,0,6.356,2.185,8,7.332l7.907,24.747Z" class="a" transform="translate(-23.86 -421.926)"/><polygon points="71.499 155.998 84.499 155.998 84.499 136.498 71.499 136.498 71.499 155.998" class="b"/><path d="M113,491.086l2.632,15.34-13.779-7.241-13.774,7.241,2.633-15.34L79.567,480.225l15.405-2.243,6.884-13.955,6.889,13.955,15.405,2.243Zm38.232,14.8a39.4,39.4,0,0,1-5.388-4.784c-21.209-22.736-18.115-71.083-17.979-73.124v-6.051H75.856v6.5c.13,1.592,3.224,49.939-17.985,72.675a39.352,39.352,0,0,1-5.389,4.784,38.744,38.744,0,0,1,8.164,6.767c18.531,20.312,15.333,57.784,15.19,59.364v5.908h6.52v-26a6.5,6.5,0,0,1,6.5-6.5h26a6.5,6.5,0,0,1,6.5,6.5v26h6.5v-6.5c-.117-.988-3.315-38.46,15.216-58.772a38.794,38.794,0,0,1,8.164-6.767Z" class="b" transform="translate(-23.86 -421.926)"/><path d="M140.858,428.426c-.045.891-2.853,45.227,14.5,63.816a23.416,23.416,0,0,0,18,7.683h6.5v-71.5a6.5,6.5,0,0,0-6.5-6.5h-32.5Z" class="c" transform="translate(-23.86 -421.926)"/><path d="M30.36,499.925a23.386,23.386,0,0,0,18-7.7C62.8,476.76,63.737,441.251,62.872,428.875v-6.949H30.36a6.5,6.5,0,0,0-6.5,6.5v71.5Z" class="c" transform="translate(-23.86 -421.926)"/><path d="M173.358,512.925c-8.691,0-15.45,2.769-20.663,8.47-14.677,16.048-11.895,49.106-11.863,49.444l.007,7.085h32.519a6.5,6.5,0,0,0,6.5-6.5v-58.5Z" class="c" transform="translate(-23.86 -421.926)"/><path d="M62.859,571.424c.059-.923,2.841-33.981-11.836-50.029-5.213-5.7-11.973-8.47-20.663-8.47h-6.5v58.5a6.5,6.5,0,0,0,6.5,6.5h32.5Z" class="c" transform="translate(-23.86 -421.926)"/></svg>